<?xml version="1.0" standalone="no"?>
<!DOCTYPE svg PUBLIC "-//W3C//DTD SVG 20010904//EN"
 "http://www.w3.org/TR/2001/REC-SVG-20010904/DTD/svg10.dtd">
<svg version="1.0" xmlns="http://www.w3.org/2000/svg"
 width="1024.000000pt" height="283.000000pt" viewBox="0 0 1024.000000 283.000000"
 preserveAspectRatio="xMidYMid meet">

<g transform="translate(0.000000,283.000000) scale(0.100000,-0.100000)"
fill="#000000" stroke="none">
<path d="M1204 2340 c-237 -54 -440 -190 -567 -383 -219 -330 -222 -811 -6
-1128 164 -241 414 -369 723 -369 235 0 417 71 566 220 92 92 185 221 176 245
-11 30 -42 12 -91 -51 -104 -136 -214 -221 -345 -266 -55 -20 -85 -23 -205
-23 -120 0 -150 3 -210 23 -175 59 -300 163 -374 313 -64 131 -82 215 -88 420
-8 261 20 425 98 583 75 150 148 226 272 285 90 42 159 55 277 55 174 -2 310
-60 420 -181 62 -68 95 -123 141 -238 28 -69 41 -90 55 -90 14 0 19 7 18 25
-4 60 -26 403 -32 485 -6 82 -9 90 -28 93 -17 2 -27 -7 -44 -43 -21 -43 -60
-75 -93 -75 -8 0 -57 18 -111 41 -188 78 -377 98 -552 59z"/>
<path d="M2277 2323 c-4 -3 -7 -14 -7 -23 0 -14 13 -18 64 -23 39 -4 85 -16
115 -31 86 -44 82 0 79 -851 -3 -717 -4 -741 -23 -773 -26 -43 -91 -73 -171
-80 -59 -4 -65 -7 -62 -26 3 -21 4 -21 388 -21 l385 0 3 23 c3 20 -1 22 -35
22 -58 0 -140 27 -174 58 -24 22 -32 39 -39 92 -11 75 -12 1347 -1 1432 12
100 68 146 187 156 59 4 65 7 62 26 -3 21 -5 21 -384 24 -209 1 -383 -1 -387
-5z"/>
<path d="M3177 2323 c-4 -3 -7 -14 -7 -23 0 -14 13 -18 65 -22 71 -6 129 -32
157 -69 33 -44 38 -151 38 -804 0 -646 -5 -742 -37 -791 -24 -37 -89 -66 -161
-72 -57 -4 -63 -7 -60 -26 3 -21 5 -21 378 -23 207 -2 381 1 389 6 28 18 4 41
-42 41 -67 0 -142 26 -170 60 -38 45 -47 126 -47 444 0 242 2 287 15 292 8 3
38 1 67 -6 96 -21 306 -25 389 -6 248 55 399 239 399 486 0 139 -45 245 -143
343 -103 102 -215 146 -421 166 -118 12 -798 15 -809 4z m844 -135 c103 -46
168 -127 204 -252 26 -90 18 -253 -17 -328 -56 -121 -159 -197 -279 -206 -80
-5 -230 13 -241 31 -4 6 -8 177 -8 378 0 301 2 369 14 378 46 38 240 37 327
-1z"/>
<path d="M4707 2323 c-4 -3 -7 -14 -7 -23 0 -14 13 -18 65 -22 71 -6 129 -31
157 -69 32 -42 38 -173 38 -809 -1 -623 -6 -739 -36 -785 -25 -38 -89 -67
-162 -73 -57 -4 -63 -7 -60 -26 3 -21 5 -21 379 -24 321 -2 378 0 389 12 19
24 5 33 -64 38 -73 6 -131 31 -158 68 -29 40 -38 146 -38 448 l0 282 98 0 98
0 64 -87 c35 -49 169 -234 298 -413 129 -179 242 -331 250 -337 12 -10 76 -13
243 -13 192 0 228 2 239 16 20 23 -4 39 -75 53 -142 27 -250 115 -406 331 -45
63 -140 195 -211 294 -71 98 -127 183 -126 188 2 5 40 21 85 37 223 77 347
237 346 445 0 130 -45 228 -143 320 -143 132 -282 156 -898 156 -197 0 -362
-3 -365 -7z m895 -135 c153 -71 237 -247 203 -426 -17 -89 -35 -122 -99 -190
-92 -97 -201 -137 -376 -137 l-115 0 -3 374 c-1 238 1 378 8 385 17 17 90 25
210 23 101 -2 122 -6 172 -29z"/>
<path d="M6547 2323 c-4 -3 -7 -14 -7 -23 0 -14 14 -18 72 -24 92 -8 137 -31
163 -82 19 -38 20 -62 23 -722 2 -409 -1 -716 -7 -765 -8 -72 -13 -85 -40
-109 -34 -31 -116 -58 -174 -58 -34 0 -38 -2 -35 -23 l3 -22 691 -3 c578 -2
693 0 703 12 11 13 151 419 151 437 0 5 -11 9 -24 9 -19 0 -31 -13 -61 -67
-44 -79 -112 -170 -156 -207 -84 -71 -168 -86 -487 -86 -234 0 -274 8 -292 55
-13 34 -14 735 -1 748 5 5 107 8 258 6 242 -4 250 -5 297 -29 64 -33 83 -61
104 -150 15 -64 21 -75 40 -78 l22 -3 0 310 c0 175 -4 312 -9 315 -22 14 -39
-7 -44 -56 -8 -64 -49 -151 -83 -173 -52 -34 -153 -46 -377 -43 l-212 3 -3
368 -2 369 322 -4 c364 -5 380 -7 442 -79 30 -35 43 -70 83 -211 2 -11 14 -18
30 -18 l25 0 -7 125 c-4 69 -10 160 -14 202 l-6 78 -691 3 c-380 1 -694 -1
-697 -5z"/>
<path d="M8227 2323 c-4 -3 -7 -14 -7 -23 0 -14 14 -18 72 -24 92 -8 137 -31
163 -82 19 -38 20 -62 23 -722 2 -411 -1 -715 -7 -765 -8 -72 -13 -85 -40
-109 -34 -31 -116 -58 -174 -58 -34 0 -38 -2 -35 -23 l3 -22 691 -3 c546 -2
694 1 701 10 10 13 153 423 153 439 0 5 -11 9 -23 9 -19 0 -34 -17 -76 -89
-106 -178 -188 -243 -331 -261 -131 -16 -503 -13 -545 4 -58 25 -59 27 -63
416 -4 316 -3 357 12 369 20 16 481 10 536 -7 20 -7 50 -24 69 -40 28 -23 37
-42 55 -112 18 -72 25 -85 44 -88 l22 -3 0 310 c0 175 -4 312 -9 315 -22 14
-37 -9 -49 -71 -34 -177 -92 -203 -453 -203 -162 0 -209 3 -218 14 -8 9 -11
114 -9 367 l3 354 320 0 c344 0 367 -3 426 -52 43 -36 68 -89 99 -210 9 -37
15 -43 36 -43 l26 0 -7 118 c-4 64 -10 155 -14 202 l-6 85 -691 3 c-380 1
-694 -1 -697 -5z"/>
</g>
</svg>
